<svg width="158" height="38" viewBox="0 0 158 38" fill="none" xmlns="http://www.w3.org/2000/svg">
<path d="M12.1531 31C6.54132 31 1.03284 29.072 1.03284 22.5307H11.1202C11.1202 23.4603 11.499 24.1144 12.2908 24.1144C13.0138 24.1144 13.3581 23.839 13.3581 23.2537C13.3581 22.4619 12.7039 22.0143 11.981 21.8766C10.053 21.5323 7.88402 21.5667 6.0249 20.947C2.78867 19.8798 1.20498 17.9862 1.20498 14.6467C1.20498 8.55293 7.02332 6.83153 12.0154 6.83153C17.7304 6.83153 22.5159 8.82836 22.9635 15.1631H13.1515C13.1515 14.268 12.7728 13.5794 12.0154 13.5794C11.3268 13.5794 10.9825 13.8548 10.9825 14.4401C10.9825 15.3353 11.7055 15.7484 12.4974 15.8517C14.4598 16.1615 16.6287 16.1615 18.4878 16.7468C21.7585 17.7796 23.4455 19.7076 23.4455 23.0816C23.4455 29.3475 17.3173 31 12.1531 31ZM25.1728 6.90039H25.4138V21.8421C25.2417 21.1192 25.1728 20.3273 25.1728 19.5355V6.90039ZM25.9302 6.90039H26.1712V24.1833C26.0679 24.0111 25.9991 23.8045 25.9302 23.598V6.90039ZM26.6532 6.90039H26.9286V25.5948C26.8253 25.4571 26.7565 25.3194 26.6532 25.1817V6.90039ZM27.4106 6.90039H27.686V26.6621C27.5828 26.5588 27.4795 26.4555 27.4106 26.3178V6.90039ZM28.168 6.90039H28.4435V27.5228C28.3402 27.4539 28.2369 27.3506 28.168 27.2473V6.90039ZM28.9255 6.90039H29.1664V28.2458C29.0976 28.1425 28.9943 28.0736 28.9255 28.0048V6.90039ZM29.6484 6.90039H29.9239V28.831C29.8206 28.7622 29.7517 28.6933 29.6484 28.6245V6.90039ZM30.4059 6.90039H30.6813V29.3475C30.578 29.2786 30.5091 29.2097 30.4059 29.1409V6.90039ZM31.1633 6.90039H31.4387V29.7606C31.3354 29.6917 31.2321 29.6573 31.1633 29.5885V6.90039ZM31.8863 6.90039H32.1961V30.1049C32.0928 30.0704 31.9895 30.0016 31.8863 29.9672V6.90039ZM32.6437 6.90039H32.9535V30.3803C32.8502 30.3459 32.747 30.3114 32.6437 30.277V6.90039ZM33.4011 6.90039H33.7109V30.6213C33.6077 30.5869 33.5044 30.5524 33.4011 30.518V6.90039ZM34.1241 6.90039H34.4684V30.7934C34.3651 30.759 34.2274 30.759 34.1241 30.7246V6.90039ZM34.8815 6.90039H35.2258V30.8967C35.0881 30.8967 34.9848 30.8967 34.8815 30.8623V6.90039ZM37.9456 6.90039H48.1363V19.5355C48.1363 25.8358 43.0409 30.9656 36.7062 31H36.6373C36.5685 31 36.4652 31 36.3619 31V20.8437C36.4652 20.8437 36.5685 20.8782 36.6718 20.8782H36.7062C37.3947 20.8437 37.9456 20.2585 37.9456 19.5699V6.90039ZM35.9488 20.6716V30.9656C35.8455 30.9656 35.7422 30.9656 35.6389 30.9656V20.3617C35.7078 20.465 35.8455 20.5683 35.9488 20.6716ZM50.1869 6.90039H50.4279V31H50.1869V6.90039ZM50.9443 6.90039H51.1853V31H50.9443V6.90039ZM51.6673 6.90039H51.9427V31H51.6673V6.90039ZM52.4247 6.90039H52.7002V31H52.4247V6.90039ZM53.1821 6.90039H53.4576V31H53.1821V6.90039ZM53.9396 6.90039H54.1806V31H53.9396V6.90039ZM54.6625 6.90039H54.938V31H54.6625V6.90039ZM55.42 6.90039H55.6954V31H55.42V6.90039ZM56.1774 6.90039H56.4528V31H56.1774V6.90039ZM56.9004 6.90039H57.2102V31H56.9004V6.90039ZM57.6578 6.90039H57.9676V31H57.6578V6.90039ZM58.4152 6.90039H58.7251V31H58.4152V6.90039ZM59.1382 6.90039H59.4825V31H59.1382V6.90039ZM59.8956 6.90039L60.2399 7.38238V31H59.8956V6.90039ZM65.0598 6.90039H76.5243V31H66.8845L61.9957 23.8045H61.7203V31H61.376V9.06935L64.8188 14.0958H65.0598V6.90039ZM60.653 7.96766L60.9629 8.48408V31H60.653V7.96766ZM78.8714 6.90039V31H78.6304V6.90039H78.8714ZM79.6288 6.90039V31H79.3878V6.90039H79.6288ZM80.3862 6.90039V31H80.1108V6.90039H80.3862ZM81.1436 6.90039V31H80.8682V6.90039H81.1436ZM81.901 6.90039V31H81.6256V6.90039H81.901ZM82.624 6.90039V31H82.383V6.90039H82.624ZM83.3814 6.90039V31H83.106V6.90039H83.3814ZM84.1388 6.90039V31H83.8634V6.90039H84.1388ZM84.8963 6.90039V31H84.6208V6.90039H84.8963ZM85.6537 6.90039V31H85.3438V6.90039H85.6537ZM86.4111 6.90039V31H86.1012V6.90039H86.4111ZM87.1685 6.90039V31H86.8587V6.90039H87.1685ZM87.9259 6.90039V31H87.5816V6.90039H87.9259ZM88.6833 6.90039V31H88.3391V6.90039H88.6833ZM89.4063 6.90039V31H89.0965V6.90039H89.4063ZM98.874 22.4274L102.282 31H91.472L90.8179 26.3866H90.1637V31H89.8195V6.90039H92.2983C97.4625 6.90039 101.663 10.9629 101.663 15.9894C101.663 18.5026 100.595 20.7749 98.874 22.4274ZM90.1637 17.8485C90.4047 17.8485 92.4016 17.8485 92.4016 15.9894C92.4016 14.0958 90.4047 14.0958 90.1637 14.0958V17.8485ZM112.725 6.90039L104.255 31H104.014L112.449 6.90039H112.725ZM113.448 6.90039L105.013 31H104.772L113.207 6.90039H113.448ZM114.205 6.90039L105.77 31H105.495L113.964 6.90039H114.205ZM114.962 6.90039L106.528 31H106.252L114.721 6.90039H114.962ZM115.72 6.90039L107.285 31H107.01L115.444 6.90039H115.72ZM116.477 6.90039L108.042 31H107.733L116.202 6.90039H116.477ZM117.235 6.90039L108.8 31H108.49L116.959 6.90039H117.235ZM117.992 6.90039L109.523 31H109.247L117.682 6.90039H117.992ZM118.749 6.90039L110.28 31H109.97L118.44 6.90039H118.749ZM119.507 6.90039L111.038 31H110.728L119.197 6.90039H119.507ZM120.264 6.90039L111.795 31H111.485L119.92 6.90039H120.264ZM120.987 6.90039L112.552 31H112.243L120.677 6.90039H120.987ZM121.745 6.90039L113.31 31H112.966L121.435 6.90039H121.745ZM122.502 6.90039L114.067 31H113.723L122.158 6.90039H122.502ZM123.26 6.90039L114.825 31H114.48L122.915 6.90039H123.26ZM124.017 6.90039L115.582 31H115.203L123.673 6.90039H124.017ZM124.706 6.90039L133.14 31H120.987L120.436 29.4163H116.89L116.34 31H115.961L124.396 6.90039H124.706ZM117.338 28.0736H119.954L118.646 24.3554L117.338 28.0736ZM144.443 6.90039H156.665L149.366 19.8109H135.285L127.986 6.90039H140.174L141.929 12.8564H142.721L144.443 6.90039ZM135.491 20.224H149.125L148.918 20.5339H135.698L135.491 20.224ZM135.939 20.947H148.677L148.505 21.2913H136.111L135.939 20.947ZM136.352 21.7044H148.264L148.092 22.0487H136.524L136.352 21.7044ZM136.696 22.4619H147.92V22.7717H136.696V22.4619ZM136.696 23.2193H147.92V23.5291H136.696V23.2193ZM136.696 23.9767H147.92V24.2865H136.696V23.9767ZM136.696 24.7341H147.92V25.0095H136.696V24.7341ZM136.696 25.4915H147.92V25.7669H136.696V25.4915ZM136.696 26.2489H147.92V26.5244H136.696V26.2489ZM136.696 27.0063H147.92V27.2473H136.696V27.0063ZM136.696 27.7293H147.92V28.0048H136.696V27.7293ZM136.696 28.4868H147.92V28.7622H136.696V28.4868ZM136.696 29.2442H147.92V29.5196H136.696V29.2442ZM136.696 30.0016H147.92V30.2426H136.696V30.0016ZM136.696 30.759H147.92V31H136.696V30.759Z" fill="#FF6B3D"/>
</svg>
